HIERARCHY
ROOT mixamorig:Hips
{
	OFFSET -0.000008 104.274872 1.554316
	CHANNELS 6 Xposition Yposition Zposition Xrotation Yrotation Zrotation
	JOINT mixamorig:Spine
	{
		OFFSET -0.000005 10.181595 0.131519
		CHANNELS 6 Xposition Yposition Zposition Xrotation Yrotation Zrotation
		JOINT mixamorig:Spine1
		{
			OFFSET -0.000000 9.893959 -1.470707
			CHANNELS 6 Xposition Yposition Zposition Xrotation Yrotation Zrotation
			JOINT mixamorig:Spine2
			{
				OFFSET -0.000000 9.220757 -1.370641
				CHANNELS 6 Xposition Yposition Zposition Xrotation Yrotation Zrotation
				JOINT mixamorig:Neck
				{
					OFFSET 0.000001 16.740417 -2.049036
					CHANNELS 6 Xposition Yposition Zposition Xrotation Yrotation Zrotation
					JOINT mixamorig:Head
					{
						OFFSET 0.000000 9.617874 1.685006
						CHANNELS 6 Xposition Yposition Zposition Xrotation Yrotation Zrotation
						JOINT mixamorig:HeadTop_End
						{
							OFFSET 0.000002 22.037354 7.501101
							CHANNELS 6 Xposition Yposition Zposition Xrotation Yrotation Zrotation
							End Site
							{
								OFFSET 0.000168 2310.654297 -282.823242
							}
						}
					}
				}
				JOINT mixamorig:RightShoulder
				{
					OFFSET -4.569970 11.014908 -2.160885
					CHANNELS 6 Xposition Yposition Zposition Xrotation Yrotation Zrotation
					JOINT mixamorig:RightArm
					{
						OFFSET -10.592851 -0.524811 -2.232101
						CHANNELS 6 Xposition Yposition Zposition Xrotation Yrotation Zrotation
						JOINT mixamorig:RightForeArm
						{
							OFFSET -27.841511 0.000031 -0.000004
							CHANNELS 6 Xposition Yposition Zposition Xrotation Yrotation Zrotation
							JOINT mixamorig:RightHand
							{
								OFFSET -28.328831 -0.000015 0.000015
								CHANNELS 6 Xposition Yposition Zposition Xrotation Yrotation Zrotation
								JOINT mixamorig:RightHandThumb1
								{
									OFFSET -2.464806 -1.573990 2.681852
									CHANNELS 6 Xposition Yposition Zposition Xrotation Yrotation Zrotation
									JOINT mixamorig:RightHandThumb2
									{
										OFFSET -3.215179 -1.872803 1.924282
										CHANNELS 6 Xposition Yposition Zposition Xrotation Yrotation Zrotation
										JOINT mixamorig:RightHandThumb3
										{
											OFFSET -2.654831 -1.527969 1.512609
											CHANNELS 6 Xposition Yposition Zposition Xrotation Yrotation Zrotation
											JOINT mixamorig:RightHandThumb4
											{
												OFFSET -2.018814 -1.152008 1.108052
												CHANNELS 6 Xposition Yposition Zposition Xrotation Yrotation Zrotation
												End Site
												{
													OFFSET -188.809540 -114.533607 132.431396
												}
											}
										}
									}
								}
								JOINT mixamorig:RightHandIndex1
								{
									OFFSET -9.108284 -0.517868 2.259835
									CHANNELS 6 Xposition Yposition Zposition Xrotation Yrotation Zrotation
									JOINT mixamorig:RightHandIndex2
									{
										OFFSET -3.699989 0.000000 0.001215
										CHANNELS 6 Xposition Yposition Zposition Xrotation Yrotation Zrotation
										JOINT mixamorig:RightHandIndex3
										{
											OFFSET -2.850006 0.000031 -0.000522
											CHANNELS 6 Xposition Yposition Zposition Xrotation Yrotation Zrotation
											JOINT mixamorig:RightHandIndex4
											{
												OFFSET -2.772186 -0.000015 -0.000020
												CHANNELS 6 Xposition Yposition Zposition Xrotation Yrotation Zrotation
												End Site
												{
													OFFSET -277.218445 0.000000 -0.050231
												}
											}
										}
									}
								}
								JOINT mixamorig:RightHandMiddle1
								{
									OFFSET -9.532516 -0.000031 -0.000023
									CHANNELS 6 Xposition Yposition Zposition Xrotation Yrotation Zrotation
									JOINT mixamorig:RightHandMiddle2
									{
										OFFSET -3.700005 -0.000015 0.003713
										CHANNELS 6 Xposition Yposition Zposition Xrotation Yrotation Zrotation
										JOINT mixamorig:RightHandMiddle3
										{
											OFFSET -2.949974 0.000015 -0.002054
											CHANNELS 6 Xposition Yposition Zposition Xrotation Yrotation Zrotation
											JOINT mixamorig:RightHandMiddle4
											{
												OFFSET -2.946640 0.000000 -0.000156
												CHANNELS 6 Xposition Yposition Zposition Xrotation Yrotation Zrotation
												End Site
												{
													OFFSET -294.664337 0.000000 -0.113670
												}
											}
										}
									}
								}
								JOINT mixamorig:RightHandRing1
								{
									OFFSET -9.103600 -0.043076 -1.865134
									CHANNELS 6 Xposition Yposition Zposition Xrotation Yrotation Zrotation
									JOINT mixamorig:RightHandRing2
									{
										OFFSET -3.379288 0.000000 -0.001055
										CHANNELS 6 Xposition Yposition Zposition Xrotation Yrotation Zrotation
										JOINT mixamorig:RightHandRing3
										{
											OFFSET -2.889687 -0.000015 0.000379
											CHANNELS 6 Xposition Yposition Zposition Xrotation Yrotation Zrotation
											JOINT mixamorig:RightHandRing4
											{
												OFFSET -2.638809 -0.000015 0.000941
												CHANNELS 6 Xposition Yposition Zposition Xrotation Yrotation Zrotation
												End Site
												{
													OFFSET -263.880371 0.000000 0.516020
												}
											}
										}
									}
								}
								JOINT mixamorig:RightHandPinky1
								{
									OFFSET -8.076683 -0.486710 -3.806280
									CHANNELS 6 Xposition Yposition Zposition Xrotation Yrotation Zrotation
									JOINT mixamorig:RightHandPinky2
									{
										OFFSET -3.600014 -0.000015 -0.003747
										CHANNELS 6 Xposition Yposition Zposition Xrotation Yrotation Zrotation
										JOINT mixamorig:RightHandPinky3
										{
											OFFSET -2.099983 0.000000 -0.005739
											CHANNELS 6 Xposition Yposition Zposition Xrotation Yrotation Zrotation
											JOINT mixamorig:RightHandPinky4
											{
												OFFSET -2.115768 -0.000031 -0.003680
												CHANNELS 6 Xposition Yposition Zposition Xrotation Yrotation Zrotation
												End Site
												{
													OFFSET -211.577087 0.000000 -0.350686
												}
											}
										}
									}
								}
							}
						}
					}
				}
				JOINT mixamorig:LeftShoulder
				{
					OFFSET 4.570447 11.014725 -2.160855
					CHANNELS 6 Xposition Yposition Zposition Xrotation Yrotation Zrotation
					JOINT mixamorig:LeftArm
					{
						OFFSET 10.592371 -0.524597 -2.232119
						CHANNELS 6 Xposition Yposition Zposition Xrotation Yrotation Zrotation
						JOINT mixamorig:LeftForeArm
						{
							OFFSET 27.841532 -0.000031 0.000026
							CHANNELS 6 Xposition Yposition Zposition Xrotation Yrotation Zrotation
							JOINT mixamorig:LeftHand
							{
								OFFSET 28.328846 -0.000061 0.000022
								CHANNELS 6 Xposition Yposition Zposition Xrotation Yrotation Zrotation
								JOINT mixamorig:LeftHandThumb1
								{
									OFFSET 2.466141 -1.576172 2.681732
									CHANNELS 6 Xposition Yposition Zposition Xrotation Yrotation Zrotation
									JOINT mixamorig:LeftHandThumb2
									{
										OFFSET 3.217812 -1.872070 1.916482
										CHANNELS 6 Xposition Yposition Zposition Xrotation Yrotation Zrotation
										JOINT mixamorig:LeftHandThumb3
										{
											OFFSET 2.656029 -1.528778 1.514513
											CHANNELS 6 Xposition Yposition Zposition Xrotation Yrotation Zrotation
											JOINT mixamorig:LeftHandThumb4
											{
												OFFSET 2.020889 -1.154053 1.115139
												CHANNELS 6 Xposition Yposition Zposition Xrotation Yrotation Zrotation
												End Site
												{
													OFFSET 190.885437 -115.081749 130.048782
												}
											}
										}
									}
								}
								JOINT mixamorig:LeftHandIndex1
								{
									OFFSET 9.109314 -0.518021 2.259871
									CHANNELS 6 Xposition Yposition Zposition Xrotation Yrotation Zrotation
									JOINT mixamorig:LeftHandIndex2
									{
										OFFSET 3.699989 0.000000 -0.000322
										CHANNELS 6 Xposition Yposition Zposition Xrotation Yrotation Zrotation
										JOINT mixamorig:LeftHandIndex3
										{
											OFFSET 2.850006 0.000000 0.000352
											CHANNELS 6 Xposition Yposition Zposition Xrotation Yrotation Zrotation
											JOINT mixamorig:LeftHandIndex4
											{
												OFFSET 2.774864 -0.000031 -0.000027
												CHANNELS 6 Xposition Yposition Zposition Xrotation Yrotation Zrotation
												End Site
												{
													OFFSET 277.486267 0.000000 -0.009857
												}
											}
										}
									}
								}
								JOINT mixamorig:LeftHandMiddle1
								{
									OFFSET 9.533394 0.000061 0.000044
									CHANNELS 6 Xposition Yposition Zposition Xrotation Yrotation Zrotation
									JOINT mixamorig:LeftHandMiddle2
									{
										OFFSET 3.699989 -0.000015 -0.000231
										CHANNELS 6 Xposition Yposition Zposition Xrotation Yrotation Zrotation
										JOINT mixamorig:LeftHandMiddle3
										{
											OFFSET 2.949997 -0.000015 -0.000059
											CHANNELS 6 Xposition Yposition Zposition Xrotation Yrotation Zrotation
											JOINT mixamorig:LeftHandMiddle4
											{
												OFFSET 2.952896 0.000031 0.000063
												CHANNELS 6 Xposition Yposition Zposition Xrotation Yrotation Zrotation
												End Site
												{
													OFFSET 295.289337 0.000000 0.022810
												}
											}
										}
									}
								}
								JOINT mixamorig:LeftHandRing1
								{
									OFFSET 9.104523 -0.042999 -1.865074
									CHANNELS 6 Xposition Yposition Zposition Xrotation Yrotation Zrotation
									JOINT mixamorig:LeftHandRing2
									{
										OFFSET 3.150009 -0.000031 0.000043
										CHANNELS 6 Xposition Yposition Zposition Xrotation Yrotation Zrotation
										JOINT mixamorig:LeftHandRing3
										{
											OFFSET 2.949982 -0.000015 0.000040
											CHANNELS 6 Xposition Yposition Zposition Xrotation Yrotation Zrotation
											JOINT mixamorig:LeftHandRing4
											{
												OFFSET 2.644348 0.000000 0.000057
												CHANNELS 6 Xposition Yposition Zposition Xrotation Yrotation Zrotation
												End Site
												{
													OFFSET 264.434631 0.000000 0.012105
												}
											}
										}
									}
								}
								JOINT mixamorig:LeftHandPinky1
								{
									OFFSET 8.077789 -0.486847 -3.806259
									CHANNELS 6 Xposition Yposition Zposition Xrotation Yrotation Zrotation
									JOINT mixamorig:LeftHandPinky2
									{
										OFFSET 3.599953 0.000031 0.014727
										CHANNELS 6 Xposition Yposition Zposition Xrotation Yrotation Zrotation
										JOINT mixamorig:LeftHandPinky3
										{
											OFFSET 2.100021 0.000015 0.007705
											CHANNELS 6 Xposition Yposition Zposition Xrotation Yrotation Zrotation
											JOINT mixamorig:LeftHandPinky4
											{
												OFFSET 2.125504 0.000031 0.007517
												CHANNELS 6 Xposition Yposition Zposition Xrotation Yrotation Zrotation
												End Site
												{
													OFFSET 212.550781 0.000000 0.625752
												}
											}
										}
									}
								}
							}
						}
					}
				}
			}
		}
	}
	JOINT mixamorig:RightUpLeg
	{
		OFFSET -8.207787 -6.751648 -1.599560
		CHANNELS 6 Xposition Yposition Zposition Xrotation Yrotation Zrotation
		JOINT mixamorig:RightLeg
		{
			OFFSET -0.000002 -44.370117 0.345942
			CHANNELS 6 Xposition Yposition Zposition Xrotation Yrotation Zrotation
			JOINT mixamorig:RightFoot
			{
				OFFSET 0.000003 -44.423679 -3.043532
				CHANNELS 6 Xposition Yposition Zposition Xrotation Yrotation Zrotation
				JOINT mixamorig:RightToeBase
				{
					OFFSET -0.000002 -8.728671 10.710558
					CHANNELS 6 Xposition Yposition Zposition Xrotation Yrotation Zrotation
					JOINT mixamorig:RightToe_End
					{
						OFFSET -0.000001 -0.000679 9.278119
						CHANNELS 6 Xposition Yposition Zposition Xrotation Yrotation Zrotation
						End Site
						{
							OFFSET 0.000000 -0.067690 927.812134
						}
					}
				}
			}
		}
	}
	JOINT mixamorig:LeftUpLeg
	{
		OFFSET 8.207793 -6.751686 -1.599556
		CHANNELS 6 Xposition Yposition Zposition Xrotation Yrotation Zrotation
		JOINT mixamorig:LeftLeg
		{
			OFFSET -0.000004 -44.370014 0.346954
			CHANNELS 6 Xposition Yposition Zposition Xrotation Yrotation Zrotation
			JOINT mixamorig:LeftFoot
			{
				OFFSET -0.000001 -44.423672 -3.044401
				CHANNELS 6 Xposition Yposition Zposition Xrotation Yrotation Zrotation
				JOINT mixamorig:LeftToeBase
				{
					OFFSET -0.000002 -8.728669 10.710558
					CHANNELS 6 Xposition Yposition Zposition Xrotation Yrotation Zrotation
					JOINT mixamorig:LeftToe_End
					{
						OFFSET -0.000003 -0.000679 9.278133
						CHANNELS 6 Xposition Yposition Zposition Xrotation Yrotation Zrotation
						End Site
						{
							OFFSET 0.000000 -0.068021 927.813477
						}
					}
				}
			}
		}
	}
}
MOTION
Frames: 3
Frame Time: 0.033333
0.000006 104.270477 1.554256 0.000010 0.000003 -0.000113 -0.000005 10.181587 0.131522 0.000001 -0.000003 0.000084 -0.000000 9.893967 -1.470711 0.000001 0.000000 -0.000000 -0.000000 9.220802 -1.370642 0.000000 -0.000000 -0.000000 0.000001 16.740433 -2.049030 0.000000 -0.000000 -0.000000 0.000000 9.617859 1.685014 0.000000 0.000000 0.000000 0.000002 22.037384 7.501101 0.000000 -0.000000 0.000000 -4.569968 11.014880 -2.160881 0.000008 0.000001 -0.000038 -10.592873 -0.524689 -2.231997 72.465780 11.309134 -8.299483 -27.841545 0.000019 0.000519 118.565937 61.115727 -89.637033 -28.328815 0.000021 0.000018 -0.000317 -0.000044 0.000008 -2.464469 -1.573676 2.682291 -54.090027 -178.005248 -31.281057 -3.215283 -1.872607 1.924674 154.375239 30.320077 -3.998660 -2.654953 -1.527894 1.513087 146.284771 26.758642 -40.532009 -2.018841 -1.152016 1.108057 -0.000006 0.000002 0.000002 -9.108384 -0.517547 2.260110 97.518449 14.698171 -16.790236 -3.700072 0.000317 0.001501 94.297066 13.146462 -14.136026 -2.850081 0.000370 -0.000273 93.497872 10.720165 -11.390152 -2.772156 -0.000000 -0.000028 -0.000000 -0.000002 -0.000000 -9.532581 0.000283 0.000239 94.378092 12.522337 -13.656827 -3.700073 0.000335 0.003959 94.200166 11.263732 -12.014310 -2.950051 0.000348 -0.001817 93.092815 11.088133 -11.691823 -2.946617 0.000001 -0.000148 0.000000 0.000002 0.000000 -9.103680 -0.042746 -1.864869 92.365659 13.584840 -14.107079 -3.379327 0.000323 -0.000809 94.038386 8.835848 -9.497221 -2.889742 0.000351 0.000635 94.907275 6.924258 -7.592111 -2.638811 -0.000018 0.000934 -0.000004 -0.000002 0.000001 -8.076737 -0.486368 -3.806020 87.893360 14.302032 -13.649236 -3.600036 0.000283 -0.003513 92.114144 6.820187 -6.715666 -2.100014 0.000332 -0.005492 91.546842 4.226156 -4.120971 -2.115759 -0.000044 -0.003679 -0.000004 0.000001 -0.000001 4.570446 11.014691 -2.160851 -0.000018 0.000010 -0.000021 10.592365 -0.524510 -2.232306 74.647137 3.795037 -2.893876 27.841843 0.000144 -0.000253 109.283047 -59.829459 78.074929 28.328840 -0.000030 0.000021 0.000020 -0.000089 0.000003 2.465911 -1.576086 2.681904 -50.103310 177.479734 17.523422 3.217826 -1.871790 1.916371 155.386653 -28.497301 15.101786 2.656100 -1.528606 1.514436 143.889109 -27.561268 35.120922 2.020886 -1.154052 1.115142 0.000003 -0.000002 0.000004 9.109368 -0.517864 2.259710 83.053652 -14.303442 12.669915 3.700034 0.000140 -0.000462 77.909386 -13.229560 10.726068 2.850047 0.000161 0.000185 76.452718 -11.950921 9.425279 2.774884 -0.000029 -0.000025 -0.000002 -0.000001 0.000001 9.533442 0.000194 -0.000115 72.784599 -13.968819 10.312631 3.700053 0.000131 -0.000360 75.355100 -14.988737 11.599730 2.950054 0.000128 -0.000189 74.610295 -18.002313 13.766443 2.952867 -0.000029 0.000065 0.000000 0.000000 0.000003 9.104583 -0.042866 -1.865227 72.716100 -13.341344 9.842788 3.150061 0.000145 -0.000082 77.232951 -14.238638 11.395954 2.950026 0.000134 -0.000057 76.301512 -15.786471 12.432296 2.644320 0.000016 0.000049 0.000000 -0.000002 -0.000004 8.077833 -0.486752 -3.806408 67.165082 -15.964022 11.036113 3.599983 0.000142 0.014563 63.928446 -13.509690 8.781644 2.100047 0.000125 0.007553 64.995602 -12.679697 8.413872 2.125509 -0.000043 0.007514 0.000002 -0.000003 -0.000002 -8.207786 -6.751667 -1.599560 -0.077001 -0.000003 0.000080 -0.000002 -44.370110 0.345938 0.153719 -0.000000 -0.000000 0.000000 -44.423679 -3.043532 -0.076700 0.000000 -0.000002 -0.000006 -8.728667 10.710559 -0.000009 -0.000000 -0.000000 -0.000001 -0.000679 9.278123 0.000000 -0.000000 -0.000000 8.207792 -6.751710 -1.599556 -0.074518 -0.000003 0.000081 -0.000002 -44.370014 0.346960 0.148822 0.000002 0.000000 -0.000001 -44.423664 -3.044403 -0.074314 0.000000 -0.000002 -0.000004 -8.728671 10.710558 0.000007 -0.000000 -0.000000 0.000000 -0.000680 9.278137 -0.000000 0.000000 -0.000001 
0.000006 104.270477 1.554256 0.000010 0.000003 -0.000113 -0.000005 10.181587 0.131522 0.000001 -0.000003 0.000084 -0.000000 9.893967 -1.470711 0.000001 0.000000 -0.000000 -0.000000 9.220802 -1.370642 0.000000 -0.000000 -0.000000 0.000001 16.740433 -2.049030 0.000000 -0.000000 -0.000000 0.000000 9.617859 1.685014 0.000000 0.000000 0.000000 0.000002 22.037384 7.501101 0.000000 -0.000000 0.000000 -4.569968 11.014880 -2.160881 0.000008 0.000001 -0.000038 -10.592876 -0.524697 -2.232004 72.080817 12.377544 -9.022665 -27.841541 0.000019 0.000503 119.314184 61.306207 -90.709379 -28.328833 0.000022 0.000016 -0.000320 -0.000045 0.000005 -2.464442 -1.573759 2.682327 -48.274022 -166.503401 -10.798574 -3.215285 -1.872650 1.924657 154.815076 29.521478 -9.039003 -2.654958 -1.527858 1.513073 142.000343 27.802157 -39.132257 -2.018823 -1.151996 1.108064 -0.000005 0.000003 0.000004 -9.108396 -0.517559 2.260132 100.387491 16.778937 -20.127519 -3.700064 0.000314 0.001526 98.596356 13.019354 -15.085443 -2.850086 0.000377 -0.000257 98.246240 9.620916 -11.105969 -2.772153 -0.000000 -0.000023 -0.000001 -0.000001 0.000002 -9.532598 0.000269 0.000257 95.846767 15.943190 -17.790524 -3.700060 0.000326 0.003973 95.704044 11.323809 -12.398750 -2.950051 0.000330 -0.001776 96.767798 10.290467 -11.567712 -2.946607 0.000001 -0.000154 -0.000003 -0.000001 -0.000001 -9.103713 -0.042746 -1.864877 94.060311 16.156539 -17.279272 -3.379322 0.000328 -0.000791 94.826180 9.341207 -10.177810 -2.889740 0.000348 0.000646 99.377176 6.555207 -7.776635 -2.638795 -0.000019 0.000938 -0.000003 -0.000000 0.000000 -8.076765 -0.486385 -3.806000 89.672884 16.606818 -16.364508 -3.600041 0.000279 -0.003505 93.612756 8.175001 -8.328898 -2.100000 0.000318 -0.005484 95.704488 4.611477 -4.855738 -2.115765 -0.000043 -0.003675 -0.000000 -0.000002 -0.000004 4.570446 11.014691 -2.160851 -0.000018 0.000010 -0.000021 10.592358 -0.524524 -2.232294 75.053998 10.655577 -8.193900 27.841843 0.000146 -0.000217 110.524263 -59.572705 79.077383 28.328850 -0.000011 0.000020 0.000022 -0.000090 -0.000001 2.466197 -1.576108 2.681857 -6.464369 164.158105 -77.918163 3.217869 -1.871843 1.916394 159.832082 -24.911862 31.568421 2.656107 -1.528656 1.514474 140.588147 -27.388087 51.664753 2.020891 -1.154081 1.115138 -0.000004 -0.000003 0.000002 9.109383 -0.517867 2.259748 83.281425 -20.581739 18.329070 3.700032 0.000138 -0.000477 81.042407 -15.002270 12.857342 2.850055 0.000166 0.000217 79.682770 -12.721212 10.626644 2.774890 -0.000015 -0.000026 -0.000001 0.000001 0.000002 9.533468 0.000182 -0.000074 73.950151 -18.991606 14.348054 3.700048 0.000136 -0.000349 75.888149 -14.115894 11.026055 2.950047 0.000152 -0.000198 74.946710 -14.103998 10.836811 2.952876 -0.000045 0.000073 -0.000002 0.000002 -0.000001 9.104589 -0.042868 -1.865216 74.317048 -18.913665 14.391711 3.150031 0.000165 -0.000094 77.512620 -13.803232 11.101325 2.950011 0.000155 -0.000083 77.561962 -11.813591 9.505265 2.644313 0.000043 0.000060 0.000002 0.000003 -0.000001 8.077839 -0.486748 -3.806383 66.876718 -20.110397 13.772118 3.599997 0.000149 0.014581 66.740688 -16.127760 11.017502 2.100043 0.000137 0.007556 68.529276 -12.673920 8.990108 2.125503 -0.000006 0.007518 0.000003 0.000001 0.000003 -8.207786 -6.751667 -1.599560 -0.077001 -0.000003 0.000080 -0.000002 -44.370110 0.345938 0.153719 -0.000000 -0.000000 0.000000 -44.423679 -3.043532 -0.076700 0.000000 -0.000002 -0.000006 -8.728667 10.710559 -0.000009 -0.000000 -0.000000 -0.000001 -0.000679 9.278123 0.000000 -0.000000 -0.000000 8.207792 -6.751710 -1.599556 -0.074518 -0.000003 0.000081 -0.000002 -44.370014 0.346960 0.148822 0.000002 0.000000 -0.000001 -44.423664 -3.044403 -0.074314 0.000000 -0.000002 -0.000004 -8.728671 10.710558 0.000007 -0.000000 -0.000000 0.000000 -0.000680 9.278137 -0.000000 0.000000 -0.000001 
0.000006 104.270477 1.554256 0.000010 0.000003 -0.000113 -0.000005 10.181587 0.131522 0.000001 -0.000003 0.000084 -0.000000 9.893967 -1.470711 0.000001 0.000000 -0.000000 -0.000000 9.220802 -1.370642 0.000000 -0.000000 -0.000000 0.000001 16.740433 -2.049030 0.000000 -0.000000 -0.000000 0.000000 9.617859 1.685014 0.000000 0.000000 0.000000 0.000002 22.037384 7.501101 0.000000 -0.000000 0.000000 -4.569968 11.014880 -2.160881 0.000008 0.000001 -0.000038 -10.592877 -0.524708 -2.231991 71.231462 14.833335 -10.654742 -27.841537 0.000017 0.000537 122.315984 64.759838 -98.054530 -28.328827 0.000022 0.000019 -0.000318 -0.000044 0.000006 -2.464445 -1.573947 2.682387 -26.586245 -150.273451 31.287792 -3.215284 -1.872586 1.924666 154.202640 30.491091 -2.852296 -2.654972 -1.527858 1.513068 142.151727 28.002746 -34.915374 -2.018823 -1.152004 1.108055 -0.000001 -0.000002 0.000004 -9.108374 -0.517563 2.260152 106.485525 15.467529 -20.671322 -3.700050 0.000327 0.001530 101.332741 9.932355 -12.078151 -2.850034 0.000396 -0.000251 99.958220 5.548026 -6.603804 -2.772164 -0.000016 -0.000024 -0.000000 0.000000 0.000000 -9.532568 0.000289 0.000246 97.539165 11.391808 -13.140364 -3.700035 0.000357 0.003968 96.504255 6.549975 -7.238230 -2.950026 0.000365 -0.001806 95.778629 6.411937 -7.084564 -2.946641 -0.000014 -0.000165 -0.000000 0.000000 0.000000 -9.103683 -0.042732 -1.864864 99.477204 11.199024 -13.157474 -3.379316 0.000337 -0.000786 98.260037 7.429125 -8.600940 -2.889744 0.000354 0.000665 99.526313 5.501161 -6.552041 -2.638804 0.000000 0.000937 0.000001 -0.000000 0.000001 -8.076730 -0.486360 -3.806000 98.141608 11.490280 -13.072811 -3.600027 0.000300 -0.003486 99.851703 6.986601 -7.886542 -2.099990 0.000313 -0.005442 100.989176 4.705092 -5.442587 -2.115763 -0.000056 -0.003675 -0.000000 0.000000 -0.000005 4.570446 11.014691 -2.160851 -0.000018 0.000010 -0.000021 10.592358 -0.524533 -2.232262 74.404734 12.128864 -9.221613 27.841854 0.000117 -0.000226 110.367592 -62.804033 82.553109 28.328817 -0.000028 0.000017 0.000019 -0.000089 -0.000000 2.466255 -1.576030 2.681831 12.033058 170.072557 -107.534840 3.217878 -1.871844 1.916410 164.133462 -22.477471 38.178541 2.656112 -1.528622 1.514469 147.387873 -25.346866 50.240744 2.020887 -1.154070 1.115143 0.000001 0.000004 0.000004 9.109385 -0.517888 2.259757 82.550056 -25.210886 22.198719 3.700064 0.000141 -0.000457 83.004933 -17.312383 15.359011 2.850067 0.000202 0.000210 84.668562 -13.596299 12.395223 2.774889 -0.000016 -0.000016 -0.000000 -0.000002 0.000002 9.533447 0.000178 -0.000068 75.844620 -20.594310 16.105741 3.700052 0.000154 -0.000361 80.409966 -13.239556 11.202181 2.950059 0.000143 -0.000213 81.506881 -12.523247 10.805620 2.952868 -0.000015 0.000061 -0.000001 0.000001 0.000002 9.104587 -0.042861 -1.865205 77.889490 -19.869379 16.115681 3.150047 0.000172 -0.000109 81.009356 -14.315300 12.247236 2.950019 0.000148 -0.000082 81.338360 -10.887787 9.363660 2.644322 0.000044 0.000054 -0.000001 -0.000006 -0.000002 8.077836 -0.486742 -3.806418 72.994334 -20.395179 15.622321 3.600015 0.000165 0.014581 72.712732 -16.481369 12.564486 2.100042 0.000160 0.007546 74.802975 -12.449651 9.908794 2.125493 -0.000040 0.007519 0.000001 0.000001 -0.000002 -8.207786 -6.751667 -1.599560 -0.077001 -0.000003 0.000080 -0.000002 -44.370110 0.345938 0.153719 -0.000000 -0.000000 0.000000 -44.423679 -3.043532 -0.076700 0.000000 -0.000002 -0.000006 -8.728667 10.710559 -0.000009 -0.000000 -0.000000 -0.000001 -0.000679 9.278123 0.000000 -0.000000 -0.000000 8.207792 -6.751710 -1.599556 -0.074518 -0.000003 0.000081 -0.000002 -44.370014 0.346960 0.148822 0.000002 0.000000 -0.000001 -44.423664 -3.044403 -0.074314 0.000000 -0.000002 -0.000004 -8.728671 10.710558 0.000007 -0.000000 -0.000000 0.000000 -0.000680 9.278137 -0.000000 0.000000 -0.000001 
